<svg id="OBJECTS" xmlns="http://www.w3.org/2000/svg" viewBox="0 0 361.71 279.72"><defs><style>.cls-1{font-size:6.14px;fill:#535656;font-family:OpenSansLight-Italic, Open Sans;}.cls-1,.cls-4{font-style:italic;}.cls-2{fill:#f975b1;}.cls-3{fill:#e83880;}.cls-4{font-size:17.98px;fill:#878a8c;font-family:OpenSans-BoldItalic, Open Sans;font-weight:700;}.cls-5{fill:#5eefd7;}.cls-6{fill:#1dd8bd;}.cls-7{fill:#70e1fc;}.cls-8{fill:#06c1f4;}.cls-9{fill:#0086ea;}.cls-10{fill:#fc6530;}.cls-11{fill:#ffb92e;}</style></defs><title>sample-chart</title><text class="cls-1" transform="translate(10.55 112.32) scale(1.02 1)">Cấu hình DHCP trên Cisco IOS <tspan x="29.63" y="7.37">Router.</tspan></text><path class="cls-2" d="M301.77,171a50.6,50.6,0,0,0-3.68-5.38,49.07,49.07,0,0,0-4.35-4.88,50.62,50.62,0,0,0-5-4.26,48.93,48.93,0,0,0-5.49-3.6,49.94,49.94,0,0,0-5.93-2.88,50.46,50.46,0,0,0-6.26-2.08,51.32,51.32,0,0,0-6.49-1.25l-2.24,16.65a35.35,35.35,0,0,1,4.29.83,32.41,32.41,0,0,1,4.14,1.38,32.08,32.08,0,0,1,3.91,1.9,31.5,31.5,0,0,1,3.63,2.38,31.9,31.9,0,0,1,6.17,6,31.81,31.81,0,0,1,2.43,3.55,33.68,33.68,0,0,1,1.94,3.84l15.84-6.43A49.36,49.36,0,0,0,301.77,171Z" transform="translate(-207.44 -146.2)"/><path class="cls-3" d="M306.83,182.91a48.9,48.9,0,0,0-2.13-6.14l-15.84,6.43a31.66,31.66,0,0,1,2.24,8.25,30.61,30.61,0,0,1,0,8.55,31.66,31.66,0,0,1-2.24,8.25,32.87,32.87,0,0,1-1.94,3.84,31.93,31.93,0,0,1-2.43,3.56,33.78,33.78,0,0,1-2.88,3.22,34.18,34.18,0,0,1-3.29,2.82,32.8,32.8,0,0,1-3.63,2.37,32.14,32.14,0,0,1-3.91,1.91,34,34,0,0,1-4.14,1.37,35.35,35.35,0,0,1-4.29.83,34,34,0,0,1-8.71,0,35.35,35.35,0,0,1-4.29-.83,34,34,0,0,1-4.14-1.37,32.14,32.14,0,0,1-3.91-1.91,32.8,32.8,0,0,1-3.63-2.37,34.18,34.18,0,0,1-3.29-2.82,33.78,33.78,0,0,1-2.88-3.22,31.93,31.93,0,0,1-2.43-3.56,31.38,31.38,0,0,1-1.94-3.84,31.66,31.66,0,0,1-2.24-8.25,30.61,30.61,0,0,1,0-8.55,31.66,31.66,0,0,1,2.24-8.25,32.51,32.51,0,0,1,4.37-7.39,31.9,31.9,0,0,1,6.17-6,31.5,31.5,0,0,1,3.63-2.38,32.08,32.08,0,0,1,3.91-1.9,32.41,32.41,0,0,1,4.14-1.38,35.35,35.35,0,0,1,4.29-.83,34,34,0,0,1,8.71,0l2.24-16.65a52.13,52.13,0,0,0-19.68,1.25,50.46,50.46,0,0,0-6.26,2.08,49.94,49.94,0,0,0-5.93,2.88,48.93,48.93,0,0,0-5.49,3.6,50.62,50.62,0,0,0-5,4.26,49.07,49.07,0,0,0-4.35,4.88,50.6,50.6,0,0,0-3.68,5.38,48.87,48.87,0,0,0-5.06,11.95,49.34,49.34,0,0,0,0,25.64,49,49,0,0,0,5.06,11.94,50.6,50.6,0,0,0,3.68,5.38,48.48,48.48,0,0,0,9.33,9.14,50.45,50.45,0,0,0,5.49,3.61,51.47,51.47,0,0,0,5.93,2.87,50.46,50.46,0,0,0,6.26,2.08,52.13,52.13,0,0,0,26.17,0,50.46,50.46,0,0,0,6.26-2.08,51.47,51.47,0,0,0,5.93-2.87,50.45,50.45,0,0,0,5.49-3.61,48.48,48.48,0,0,0,9.33-9.14,50.6,50.6,0,0,0,3.68-5.38,49,49,0,0,0,5.06-37.58Z" transform="translate(-207.44 -146.2)"/><text class="cls-4" transform="translate(31.06 55.2) scale(1.02 1)">75%</text><text id="Hiểu_cách_sử_dụng_IPv6_để_đáp_ứng_yêu_cầu_trong_môi_trường_mạng_với_số_lượng_lớn_truy_cập." data-name="Hiểu cách sử dụng IPv6 để đáp ứng yêu cầu trong môi trường mạng với số lượng lớn truy cập." class="cls-1" transform="translate(139.28 112.32) scale(1.02 1)">Hiểu cách sử dụng IPv6 để đáp <tspan x="0.95" y="7.37">ứng yêu cầu trong môi trường </tspan><tspan x="-1.14" y="14.75">mạng với số lượng lớn truy cập.</tspan></text><path class="cls-5" d="M441.11,189.26a47.57,47.57,0,0,0-1.27-6.35,48.9,48.9,0,0,0-2.13-6.14,47.87,47.87,0,0,0-2.93-5.81,50.4,50.4,0,0,0-18.5-18.12,49.94,49.94,0,0,0-5.93-2.88,50.46,50.46,0,0,0-6.26-2.08A52.84,52.84,0,0,0,391,146.2V163a34.83,34.83,0,0,1,4.36.28,35.19,35.19,0,0,1,4.28.83,32.41,32.41,0,0,1,4.14,1.38,32.94,32.94,0,0,1,3.92,1.9,33.33,33.33,0,0,1,3.63,2.38,31.48,31.48,0,0,1,6.16,6,32.51,32.51,0,0,1,4.37,7.39,32.21,32.21,0,0,1,2.25,8.25,31.65,31.65,0,0,1,0,8.55,32.21,32.21,0,0,1-2.25,8.25,31.38,31.38,0,0,1-1.94,3.84,31.93,31.93,0,0,1-2.43,3.56,35.09,35.09,0,0,1-2.87,3.22l12.12,11.88a51,51,0,0,0,8-10.26,47.87,47.87,0,0,0,2.93-5.81,49.31,49.31,0,0,0,2.13-6.13,48,48,0,0,0,1.27-19.29Z" transform="translate(-207.44 -146.2)"/><path class="cls-6" d="M411.34,221.69a34.79,34.79,0,0,1-3.63,2.37,33,33,0,0,1-3.92,1.91,34,34,0,0,1-4.14,1.37,35.19,35.19,0,0,1-4.28.83,34.09,34.09,0,0,1-8.72,0,35.73,35.73,0,0,1-4.29-.83,34,34,0,0,1-4.14-1.37,32.14,32.14,0,0,1-3.91-1.91,32.8,32.8,0,0,1-3.63-2.37,34.18,34.18,0,0,1-3.29-2.82,33.78,33.78,0,0,1-2.88-3.22,34.89,34.89,0,0,1-2.43-3.56,34.51,34.51,0,0,1-1.94-3.84A31.66,31.66,0,0,1,357.9,200a31.65,31.65,0,0,1,0-8.55,31.66,31.66,0,0,1,2.24-8.25,35.4,35.4,0,0,1,1.94-3.84,34.76,34.76,0,0,1,2.43-3.55,31.9,31.9,0,0,1,6.17-6,31.5,31.5,0,0,1,3.63-2.38,32.08,32.08,0,0,1,3.91-1.9,32.41,32.41,0,0,1,4.14-1.38,35.73,35.73,0,0,1,4.29-.83A34.83,34.83,0,0,1,391,163V146.2A51.35,51.35,0,0,0,371.66,150a50.7,50.7,0,0,0-5.93,2.88,48.93,48.93,0,0,0-5.49,3.6,50.62,50.62,0,0,0-5,4.26,49.07,49.07,0,0,0-4.35,4.88,50.6,50.6,0,0,0-3.68,5.38,49.36,49.36,0,0,0-2.93,5.81,48.61,48.61,0,0,0-3.4,12.49,47.72,47.72,0,0,0,0,12.93,48.32,48.32,0,0,0,3.4,12.49,49.36,49.36,0,0,0,2.93,5.81,50.6,50.6,0,0,0,3.68,5.38,48.48,48.48,0,0,0,9.33,9.14,50.45,50.45,0,0,0,5.49,3.61,52.28,52.28,0,0,0,5.93,2.87,52,52,0,0,0,32.43,2.08,50.46,50.46,0,0,0,6.26-2.08,51.47,51.47,0,0,0,5.93-2.87,50.45,50.45,0,0,0,5.49-3.61,48.23,48.23,0,0,0,5-4.26l-12.12-11.88A35.43,35.43,0,0,1,411.34,221.69Z" transform="translate(-207.44 -146.2)"/><text class="cls-4" transform="translate(162.35 55.2) scale(1.02 1)">65%</text><text class="cls-1" transform="translate(266.43 112.32) scale(1.02 1)">Hiểu được sự cần thiết của việc sử <tspan x="2.14" y="7.37">dụng địa chỉ private và public và </tspan><tspan x="18.87" y="14.75">cấu hình được NAT.</tspan></text><path class="cls-7" d="M568.71,189.26a48.61,48.61,0,0,0-3.4-12.49,50.05,50.05,0,0,0-6.61-11.19,50.46,50.46,0,0,0-4.36-4.88A51.56,51.56,0,0,0,538,150a52.08,52.08,0,0,0-19.35-3.76V163a34.83,34.83,0,0,1,4.36.28,35.73,35.73,0,0,1,4.29.83,33.76,33.76,0,0,1,11.68,5.66,32.73,32.73,0,0,1,3.29,2.81,31.39,31.39,0,0,1,2.87,3.23,32.51,32.51,0,0,1,4.37,7.39,31.27,31.27,0,0,1,1.41,4.05,32.52,32.52,0,0,1,.84,4.2,31.65,31.65,0,0,1,0,8.55,32.52,32.52,0,0,1-.84,4.2,32.37,32.37,0,0,1-3.35,7.89,31.93,31.93,0,0,1-2.43,3.56,32.37,32.37,0,0,1-2.87,3.22,34.18,34.18,0,0,1-3.29,2.82,33.76,33.76,0,0,1-3.63,2.37,32.27,32.27,0,0,1-3.92,1.91,33.87,33.87,0,0,1-4.13,1.37,35.73,35.73,0,0,1-4.29.83,34.83,34.83,0,0,1-4.36.28v16.81a51,51,0,0,0,25.27-6.64,50.58,50.58,0,0,0,5.5-3.61,48.11,48.11,0,0,0,5-4.26,50.46,50.46,0,0,0,4.36-4.88,50.05,50.05,0,0,0,6.61-11.19,48.32,48.32,0,0,0,3.4-12.49,47.72,47.72,0,0,0,0-12.93Z" transform="translate(-207.44 -146.2)"/><path class="cls-8" d="M486.34,187.25a29.79,29.79,0,0,1,1.4-4.05,32.51,32.51,0,0,1,4.37-7.39,31.39,31.39,0,0,1,2.87-3.23,32.73,32.73,0,0,1,3.29-2.81A33.79,33.79,0,0,1,510,164.11a35.73,35.73,0,0,1,4.29-.83,34.83,34.83,0,0,1,4.36-.28V146.2A51.5,51.5,0,0,0,499.25,150a50.56,50.56,0,0,0-5.92,2.88,50.86,50.86,0,0,0-10.47,7.86,50,50,0,0,0-8,10.26,49.42,49.42,0,0,0-2.94,5.81,48.61,48.61,0,0,0-3.4,12.49,47.72,47.72,0,0,0,0,12.93,48.32,48.32,0,0,0,3.4,12.49,49.42,49.42,0,0,0,2.94,5.81,50,50,0,0,0,8,10.26,48.11,48.11,0,0,0,5,4.26,50.58,50.58,0,0,0,5.5,3.61,52.13,52.13,0,0,0,5.92,2.87,52.49,52.49,0,0,0,19.35,3.77V228.45a34.83,34.83,0,0,1-4.36-.28,35.73,35.73,0,0,1-4.29-.83,33.87,33.87,0,0,1-4.13-1.37,32.27,32.27,0,0,1-3.92-1.91,33.76,33.76,0,0,1-3.63-2.37,34.18,34.18,0,0,1-3.29-2.82,32.37,32.37,0,0,1-2.87-3.22,31.93,31.93,0,0,1-2.43-3.56,31.38,31.38,0,0,1-1.94-3.84,29.79,29.79,0,0,1-1.4-4.05,30.93,30.93,0,0,1-.85-4.2,31.65,31.65,0,0,1,0-8.55A30.93,30.93,0,0,1,486.34,187.25Z" transform="translate(-207.44 -146.2)"/><text class="cls-4" transform="translate(293.11 55.2) scale(1.02 1)">50%</text><text class="cls-1" transform="translate(64.26 259.63) scale(1.02 1)">Nhận thức tầm quan trọng của <tspan x="-3.22" y="7.37">ACL và cấu hình ACL cho hệ thống </tspan><tspan x="33.34" y="14.75">mạng</tspan></text><path class="cls-8" d="M363.88,334.43a48.32,48.32,0,0,0-3.4-12.49,47.21,47.21,0,0,0-2.94-5.81,49.07,49.07,0,0,0-3.67-5.38,50.36,50.36,0,0,0-4.35-4.88,49.3,49.3,0,0,0-5-4.26A50.58,50.58,0,0,0,339,298a50.47,50.47,0,0,0-12.18-4.95,49.6,49.6,0,0,0-6.49-1.25,51.28,51.28,0,0,0-6.6-.44v16.81a34.83,34.83,0,0,1,4.36.28,34,34,0,0,1,8.43,2.2,33.87,33.87,0,0,1,10.83,7.1,33.78,33.78,0,0,1,2.88,3.22,33.26,33.26,0,0,1,2.42,3.56,32.37,32.37,0,0,1,3.35,7.89,32.52,32.52,0,0,1,.84,4.2,32.55,32.55,0,0,1-.84,12.74,31.41,31.41,0,0,1-1.41,4.06,32.12,32.12,0,0,1-1.94,3.84,34.17,34.17,0,0,1-2.42,3.55,32.72,32.72,0,0,1-2.88,3.23,34.08,34.08,0,0,1-3.29,2.81,31.5,31.5,0,0,1-3.63,2.38,32.8,32.8,0,0,1-3.91,1.9,32.41,32.41,0,0,1-4.14,1.38,33.85,33.85,0,0,1-4.29.82,34.61,34.61,0,0,1-13-.82,32.41,32.41,0,0,1-4.14-1.38,32.94,32.94,0,0,1-3.92-1.9,33.33,33.33,0,0,1-3.63-2.38,35.33,35.33,0,0,1-3.29-2.81,32.62,32.62,0,0,1-2.87-3.23L273.67,371a50.46,50.46,0,0,0,4.36,4.88,51.89,51.89,0,0,0,5,4.26,50.72,50.72,0,0,0,17.69,8.56,51.53,51.53,0,0,0,32.43-2.08,49.8,49.8,0,0,0,5.92-2.88,49.06,49.06,0,0,0,5.5-3.6,52,52,0,0,0,5-4.26,50.36,50.36,0,0,0,4.35-4.88,49.07,49.07,0,0,0,3.67-5.38,47.93,47.93,0,0,0,2.94-5.81,48.61,48.61,0,0,0,3.4-12.49,47.72,47.72,0,0,0,0-12.93Z" transform="translate(-207.44 -146.2)"/><path class="cls-9" d="M300.69,293.05a50.46,50.46,0,0,0-6.26,2.08A50.64,50.64,0,0,0,283,301.61a49.19,49.19,0,0,0-5,4.26,50,50,0,0,0-8,10.26,48.66,48.66,0,0,0-2.94,5.81,47.69,47.69,0,0,0-2.12,6.13,48.92,48.92,0,0,0,0,25.64,47.31,47.31,0,0,0,2.12,6.14,49.42,49.42,0,0,0,2.94,5.81,50.51,50.51,0,0,0,3.67,5.38l13.61-10.23a32.76,32.76,0,0,1-2.43-3.55,32.12,32.12,0,0,1-1.94-3.84,33,33,0,0,1-1.4-4.06,30.32,30.32,0,0,1-.85-4.2,31.58,31.58,0,0,1,0-8.54,30.93,30.93,0,0,1,.85-4.2,32.8,32.8,0,0,1,1.4-4.05,31.38,31.38,0,0,1,1.94-3.84,31.93,31.93,0,0,1,2.43-3.56,33.67,33.67,0,0,1,2.87-3.22,35.43,35.43,0,0,1,3.29-2.82,36.57,36.57,0,0,1,3.63-2.38,34.56,34.56,0,0,1,3.92-1.9,34,34,0,0,1,4.14-1.37,33.37,33.37,0,0,1,4.28-.83,34.83,34.83,0,0,1,4.36-.28V291.36a51.12,51.12,0,0,0-6.59.44A49.6,49.6,0,0,0,300.69,293.05Z" transform="translate(-207.44 -146.2)"/><text class="cls-4" transform="translate(86.84 198.39) scale(1.02 1)">45%</text><text class="cls-1" transform="translate(200.25 259.63) scale(1.02 1)">Nhận thức tầm quan trọng các kỹ <tspan x="4.59" y="7.37">thuật trong mạng WAN và cấu </tspan><tspan x="21.86" y="14.75">hình kết nối WAN</tspan></text><path class="cls-10" d="M442.72,293.05a51,51,0,0,0-6.26,2.08,52.28,52.28,0,0,0-5.93,2.87,50.45,50.45,0,0,0-5.49,3.61,48.48,48.48,0,0,0-9.33,9.14,50.6,50.6,0,0,0-3.68,5.38,48.59,48.59,0,0,0-2.93,5.81,47.69,47.69,0,0,0-2.12,6.13l16.56,4.35a32.8,32.8,0,0,1,1.4-4.05,34.51,34.51,0,0,1,1.94-3.84,34.89,34.89,0,0,1,2.43-3.56,33.78,33.78,0,0,1,2.88-3.22,33.83,33.83,0,0,1,6.92-5.2,33.61,33.61,0,0,1,3.91-1.9,34,34,0,0,1,8.43-2.2,34.83,34.83,0,0,1,4.36-.28V291.36a51.28,51.28,0,0,0-6.6.44A49.6,49.6,0,0,0,442.72,293.05Z" transform="translate(-207.44 -146.2)"/><path class="cls-11" d="M505.91,334.43a47.72,47.72,0,0,0-1.27-6.36,49.31,49.31,0,0,0-2.13-6.13,47.15,47.15,0,0,0-2.93-5.81,51,51,0,0,0-8-10.26,48.23,48.23,0,0,0-5-4.26,50.45,50.45,0,0,0-5.49-3.61,51.47,51.47,0,0,0-5.93-2.87,50.46,50.46,0,0,0-6.26-2.08,49.6,49.6,0,0,0-6.49-1.25,51.24,51.24,0,0,0-6.59-.44v16.81a34.83,34.83,0,0,1,4.36.28,33.37,33.37,0,0,1,4.28.83,34,34,0,0,1,4.14,1.37,34.56,34.56,0,0,1,3.92,1.9,36.57,36.57,0,0,1,3.63,2.38,32.24,32.24,0,0,1,6.16,6,31.93,31.93,0,0,1,2.43,3.56,31.38,31.38,0,0,1,1.94,3.84,32.21,32.21,0,0,1,2.25,8.25,31.58,31.58,0,0,1,0,8.54,31.87,31.87,0,0,1-.85,4.2,33,33,0,0,1-1.4,4.06,32.12,32.12,0,0,1-1.94,3.84,32.76,32.76,0,0,1-2.43,3.55,33.94,33.94,0,0,1-2.87,3.23,35.33,35.33,0,0,1-3.29,2.81,33.33,33.33,0,0,1-3.63,2.38,32.94,32.94,0,0,1-3.92,1.9,32.41,32.41,0,0,1-4.14,1.38,33.75,33.75,0,0,1-13,.82,33.85,33.85,0,0,1-4.29-.82,32.41,32.41,0,0,1-4.14-1.38,32.08,32.08,0,0,1-3.91-1.9,31.5,31.5,0,0,1-3.63-2.38,34.08,34.08,0,0,1-3.29-2.81,32.72,32.72,0,0,1-2.88-3.23,35.9,35.9,0,0,1-2.43-3.55,35.4,35.4,0,0,1-1.94-3.84,33,33,0,0,1-1.4-4.06,32.06,32.06,0,0,1-.84-12.74,32.52,32.52,0,0,1,.84-4.2L407,328.07a47.74,47.74,0,0,0-1.28,6.36,47.72,47.72,0,0,0,0,12.93,48.61,48.61,0,0,0,3.4,12.49,49.36,49.36,0,0,0,2.93,5.81,50.6,50.6,0,0,0,3.68,5.38,49.07,49.07,0,0,0,4.35,4.88,52,52,0,0,0,5,4.26,48.93,48.93,0,0,0,5.49,3.6,50.25,50.25,0,0,0,12.19,5,52.13,52.13,0,0,0,26.17,0,50.46,50.46,0,0,0,6.26-2.08,49.94,49.94,0,0,0,5.93-2.88,48.93,48.93,0,0,0,5.49-3.6,50.82,50.82,0,0,0,5-4.26,51,51,0,0,0,8-10.26,47.87,47.87,0,0,0,2.93-5.81,48.9,48.9,0,0,0,2.13-6.14,47.94,47.94,0,0,0,1.27-19.28Z" transform="translate(-207.44 -146.2)"/><text class="cls-4" transform="translate(230.65 201.81) scale(1.02 1)">15%</text></svg>