<svg xmlns="http://www.w3.org/2000/svg" xmlns:xlink="http://www.w3.org/1999/xlink" viewBox="0 0 433.06 433.06"><defs><style>.cls-1{fill:none;}.cls-2{fill:#9f71ac;}.cls-3,.cls-40{fill:#e6b851;}.cls-23,.cls-4{fill:#4375f1;}.cls-25,.cls-5{fill:#e2b187;}.cls-6{fill:#edba8f;}.cls-7{fill:#dc466f;}.cls-36,.cls-8{fill:#838bc0;}.cls-9{isolation:isolate;}.cls-10,.cls-20{fill:#becbfc;}.cls-11{opacity:0.38;}.cls-12{opacity:0.18;}.cls-13{clip-path:url(#clip-path);}.cls-14,.cls-20{opacity:0.8;}.cls-15{fill:#4375fa;}.cls-16{fill:#819fde;}.cls-17{clip-path:url(#clip-path-2);}.cls-18{clip-path:url(#clip-path-3);}.cls-19{clip-path:url(#clip-path-4);}.cls-21{clip-path:url(#clip-path-5);}.cls-22{fill:#507cc7;opacity:0.4;}.cls-22,.cls-23,.cls-25,.cls-27,.cls-29,.cls-36,.cls-38,.cls-40{mix-blend-mode:multiply;}.cls-23{opacity:0.5;}.cls-24{clip-path:url(#clip-path-6);}.cls-25,.cls-29{opacity:0.31;}.cls-26{clip-path:url(#clip-path-7);}.cls-27{fill:#af703f;opacity:0.28;}.cls-28{clip-path:url(#clip-path-8);}.cls-29{fill:#a172ae;}.cls-30{clip-path:url(#clip-path-9);}.cls-31{fill:#43464a;}.cls-32{fill:#fff;}.cls-33{fill:#e79d90;}.cls-34{fill:#cbcfd6;}.cls-35{clip-path:url(#clip-path-10);}.cls-36{opacity:0.61;}.cls-37{clip-path:url(#clip-path-11);}.cls-38{fill:#606060;}.cls-38,.cls-40{opacity:0.22;}.cls-39{clip-path:url(#clip-path-12);}</style><clipPath id="clip-path" transform="translate(-36.94 -25.03)"><circle class="cls-1" cx="240.76" cy="88.07" r="10.83" transform="translate(99.5 302) rotate(-76.65)"/></clipPath><clipPath id="clip-path-2" transform="translate(-36.94 -25.03)"><circle class="cls-1" cx="156.95" cy="384.22" r="16.48"/></clipPath><clipPath id="clip-path-3" transform="translate(-36.94 -25.03)"><circle class="cls-1" cx="420.61" cy="201.54" r="12.24" transform="translate(154.07 584.27) rotate(-80.75)"/></clipPath><clipPath id="clip-path-4" transform="translate(-36.94 -25.03)"><circle class="cls-1" cx="54.78" cy="211.9" r="8"/></clipPath><clipPath id="clip-path-5" transform="translate(-36.94 -25.03)"><path class="cls-4" d="M358.17,274.86c-8.1-19.8-17.32-23.5-17.32-23.5s.29-.39.75-1.08a20.19,20.19,0,0,1,9,8,.25.25,0,0,0,.43-.25,20.76,20.76,0,0,0-9.2-8.2l.66-1a34.54,34.54,0,0,1,8.23,2.95c.28.14.54-.28.25-.42a34.6,34.6,0,0,0-8.21-3c5-8.25,15.79-31-15.77-33.56a18.06,18.06,0,0,1,7.41-4.46c.3-.11.17-.58-.13-.48a19,19,0,0,0-7.42,4.37,25,25,0,0,1,1.29-4.07c.12-.29-.36-.42-.48-.13a25,25,0,0,0-1.38,4.46c-.49-.46-1.61-1.48-3.22-2.76a25.2,25.2,0,0,0-2.88-3.55c-5.38-5.55-12.93-7.4-20.47-6.67a.26.26,0,0,0-.23.18,20.05,20.05,0,0,0-13.42,4.86c-5.29,4.41-6,11.18-4.69,17.69.08,1,.27,2,.37,2.7a37.88,37.88,0,0,0,5.52,13.64c-3.23.55-9.05,2.49-7.84,9.42,1.66,9.49,9.47,21.44.22,22.69s-13.71,22.42,19,42.2,63.89,1.05,51-14.62C349.7,300.3,366.28,294.65,358.17,274.86Zm-75.54-46.24a35.14,35.14,0,0,0,6.71,11.78,14.38,14.38,0,0,0-1.5.13A39.92,39.92,0,0,1,282.63,228.62Zm37.44-19.86a23.9,23.9,0,0,1,1.65,1.93c-4.56-3.42-11.81-7.88-19.55-8.8C308.85,201.75,315.33,203.76,320.07,208.76Z"/></clipPath><clipPath id="clip-path-6" transform="translate(-36.94 -25.03)"><path class="cls-5" d="M299.89,269.56l-3-5.27s-8.62.85-11.75,4.5-23,40-23,40-8.6,4.08-15.68,7.56a11.68,11.68,0,0,1,4.95,7c6.21-2.25,14.34-5.67,17.28-7.78,0,0,19.17-14.67,21.26-24.59S299.89,269.56,299.89,269.56Z"/></clipPath><clipPath id="clip-path-7" transform="translate(-36.94 -25.03)"><path class="cls-6" d="M305.27,251.32s1.57,5.74-5.22,12.53l-3.65,6.78,7.83,8.87,7.82,2.61,16.7-19.31-7.3-4.69-2.09-21.4Z"/></clipPath><clipPath id="clip-path-8" transform="translate(-36.94 -25.03)"><path class="cls-7" d="M302.69,260.71s3.1,8.88,18.76-2.6c0,0,9.75,5.2,12.42,6.84,5.94,3.62,7.2,3,8.77,8.76l-13.89,46,4.7,18.26-50.11.09,4.44-20.31a16.58,16.58,0,0,0-5.15-13.51c-7.16-6.93,2.45-18.39,10-39.26C293.25,263.22,302.69,260.71,302.69,260.71Z"/></clipPath><clipPath id="clip-path-9" transform="translate(-36.94 -25.03)"><path class="cls-6" d="M308.14,211.82s-14.52,10.89-12.61,27.64c.88,7.66,2.61,10,5.68,12.29,3.63,2.64,15.72,1,18.88-5.1l1.67-4.94s3,2.65,5.95-1.3,2.34-10.22-2-7.27l2.67-7.91-2.61-6.94Z"/></clipPath><clipPath id="clip-path-10" transform="translate(-36.94 -25.03)"><path class="cls-8" d="M156.92,261l1.94,56.51a6.5,6.5,0,0,0,6.5,6.29h81.27a6.52,6.52,0,0,0,6.51-6.73l-1.94-56.52a6.51,6.51,0,0,0-6.5-6.28H163.43A6.5,6.5,0,0,0,156.92,261Z"/></clipPath><clipPath id="clip-path-11" transform="translate(-36.94 -25.03)"><path class="cls-2" d="M293.87,96.47H416.7a3.89,3.89,0,0,1,3.89,3.89v31a3.87,3.87,0,0,1-1.71,3.22l-19.64,13.28a1.31,1.31,0,0,1-2-1.47l3.93-13H293.87a3.89,3.89,0,0,1-3.88-3.89V100.36A3.89,3.89,0,0,1,293.87,96.47Z"/></clipPath><clipPath id="clip-path-12" transform="translate(-36.94 -25.03)"><path class="cls-3" d="M378.72,139.74H245.08a4.23,4.23,0,0,0-4.23,4.23v33.71a4.21,4.21,0,0,0,1.86,3.5l21.37,14.44a1.42,1.42,0,0,0,2.16-1.59L262,179.93H378.72a4.23,4.23,0,0,0,4.22-4.23V144A4.22,4.22,0,0,0,378.72,139.74Z"/></clipPath></defs><title>contact</title><g class="cls-9"><g id="OBJECTS"><path class="cls-10" d="M253.47,395.14a153.59,153.59,0,1,1,108.6-45A152.58,152.58,0,0,1,253.47,395.14Zm0-306.74a153.16,153.16,0,1,0,108.3,44.86A152.15,152.15,0,0,0,253.47,88.4Z" transform="translate(-36.94 -25.03)"/><path class="cls-10" d="M253.47,413.43a171.37,171.37,0,1,1,66.9-13.51A170.85,170.85,0,0,1,253.47,413.43Zm0-343.26a170.87,170.87,0,1,0,66.71,13.47A170.25,170.25,0,0,0,253.47,70.17Z" transform="translate(-36.94 -25.03)"/><path class="cls-10" d="M253.47,363a121,121,0,1,1,47.27-9.54A120.73,120.73,0,0,1,253.47,363Zm0-242.53A120.74,120.74,0,1,0,300.61,130,120.26,120.26,0,0,0,253.47,120.46Z" transform="translate(-36.94 -25.03)"/><g class="cls-11"><path class="cls-10" d="M253.47,435A193.52,193.52,0,0,1,178.16,63.29,193.52,193.52,0,0,1,328.78,419.83,192.23,192.23,0,0,1,253.47,435Zm0-386.41a192.39,192.39,0,1,0,75.1,15.17A191.75,191.75,0,0,0,253.47,48.62Z" transform="translate(-36.94 -25.03)"/></g><g class="cls-12"><path class="cls-10" d="M253.47,458.09A216.59,216.59,0,0,1,169.19,42a216.59,216.59,0,0,1,168.56,399A215.17,215.17,0,0,1,253.47,458.09Zm0-432.46a216,216,0,0,0-84.05,414.88A216,216,0,0,0,337.52,42.6,214.57,214.57,0,0,0,253.47,25.63Z" transform="translate(-36.94 -25.03)"/></g><path class="cls-10" d="M253.47,441.47A200,200,0,0,1,175.66,57.36a200,200,0,0,1,155.62,368.4A198.69,198.69,0,0,1,253.47,441.47Zm0-399.26a199.4,199.4,0,0,0-77.6,383A199.4,199.4,0,0,0,331.07,57.87,198.23,198.23,0,0,0,253.47,42.21Z" transform="translate(-36.94 -25.03)"/><g class="cls-13"><g class="cls-14"><circle class="cls-10" cx="240.76" cy="88.07" r="14.63" transform="translate(63.84 277.81) rotate(-77)"/></g><path class="cls-15" d="M240.76,102.57h0Z" transform="translate(-36.94 -25.03)"/><path class="cls-16" d="M249.27,98.19c-.13-2.77-1.81-4.58-3-4.45a23,23,0,0,1-3.87-.26,3.32,3.32,0,0,1-.17-1.56,6.43,6.43,0,0,0,2.41-4.78,1.2,1.2,0,0,0,.72-.86c.17-.57,0-1.11-.29-1.21a.42.42,0,0,0-.37.07c0-3-.08-5.26-4-5.26-3.67,0-3.94,2.25-4,5.19a.48.48,0,0,0-.34-.11c-.34,0-.56.55-.49,1.14s.41,1,.75,1a.42.42,0,0,0,.12,0,6.66,6.66,0,0,0,2.27,4.76,3.24,3.24,0,0,1-.16,1.66,22.88,22.88,0,0,1-3.86.26c-1.16-.13-2.84,1.68-3,4.45s7.78,4.22,8.57,4.37C241.48,102.41,249.39,100.82,249.27,98.19Z" transform="translate(-36.94 -25.03)"/></g><g class="cls-17"><g class="cls-14"><circle class="cls-10" cx="120.01" cy="359.19" r="22.27"/></g><path class="cls-15" d="M157,406.29l-.1,0-.1,0Z" transform="translate(-36.94 -25.03)"/><path class="cls-16" d="M169.9,399.62c-.2-4.22-2.75-7-4.51-6.77a34.94,34.94,0,0,1-5.89-.39,4.87,4.87,0,0,1-.26-2.38c1.91-1.23,3.33-4,3.66-7.28a1.76,1.76,0,0,0,1.1-1.3c.26-.87.06-1.69-.44-1.85a.71.71,0,0,0-.57.11c0-4.54-.12-8-6-8-5.59,0-6,3.42-6,7.91a.7.7,0,0,0-.51-.18c-.52.06-.86.84-.75,1.74s.62,1.58,1.14,1.51a.45.45,0,0,0,.19-.05c.3,3.23,1.63,5.93,3.45,7.24a5,5,0,0,1-.25,2.53,34.89,34.89,0,0,1-5.88.39c-1.77-.2-4.32,2.55-4.51,6.77-.19,4,11.84,6.42,13,6.65C158.06,406,170.08,403.63,169.9,399.62Z" transform="translate(-36.94 -25.03)"/></g><g class="cls-18"><g class="cls-14"><circle class="cls-10" cx="420.61" cy="201.54" r="16.54" transform="translate(110.56 554.59) rotate(-79.76)"/></g><path class="cls-15" d="M420.61,217.93h0Z" transform="translate(-36.94 -25.03)"/><path class="cls-16" d="M430.23,213c-.14-3.14-2-5.18-3.35-5a26.89,26.89,0,0,1-4.37-.29,3.55,3.55,0,0,1-.19-1.77,7.3,7.3,0,0,0,2.72-5.4,1.35,1.35,0,0,0,.81-1c.19-.65,0-1.26-.32-1.37a.56.56,0,0,0-.43.07c0-3.36-.09-5.94-4.48-5.94-4.15,0-4.46,2.54-4.48,5.87a.57.57,0,0,0-.38-.13c-.39,0-.64.63-.56,1.3s.46,1.17.85,1.12a.33.33,0,0,0,.14,0,7.54,7.54,0,0,0,2.57,5.38,3.76,3.76,0,0,1-.19,1.88,26.89,26.89,0,0,1-4.37.29c-1.31-.15-3.2,1.89-3.35,5-.14,3,8.8,4.77,9.69,4.94C421.44,217.75,430.37,216,430.23,213Z" transform="translate(-36.94 -25.03)"/></g><path class="cls-16" d="M98.57,303.71a5.18,5.18,0,1,1-5.18-5.18A5.18,5.18,0,0,1,98.57,303.71Z" transform="translate(-36.94 -25.03)"/><path class="cls-16" d="M430.5,254.27a5.18,5.18,0,1,1-5.18-5.18A5.18,5.18,0,0,1,430.5,254.27Z" transform="translate(-36.94 -25.03)"/><path class="cls-16" d="M303.55,78.79a3.23,3.23,0,1,1-.51-4.55A3.23,3.23,0,0,1,303.55,78.79Z" transform="translate(-36.94 -25.03)"/><path class="cls-16" d="M286.79,391.2a3.23,3.23,0,1,1-3.73-2.63A3.24,3.24,0,0,1,286.79,391.2Z" transform="translate(-36.94 -25.03)"/><path class="cls-16" d="M229.35,438.76a3.23,3.23,0,1,1-3.74-2.64A3.23,3.23,0,0,1,229.35,438.76Z" transform="translate(-36.94 -25.03)"/><path class="cls-16" d="M453,278.21a3.23,3.23,0,1,1-3.73-2.64A3.22,3.22,0,0,1,453,278.21Z" transform="translate(-36.94 -25.03)"/><path class="cls-16" d="M126.71,87.52A3.24,3.24,0,1,1,123,84.88,3.23,3.23,0,0,1,126.71,87.52Z" transform="translate(-36.94 -25.03)"/><g class="cls-19"><g class="cls-14"><circle class="cls-10" cx="17.84" cy="186.87" r="10.82"/></g><path class="cls-15" d="M54.78,222.61h0Z" transform="translate(-36.94 -25.03)"/><path class="cls-16" d="M61.07,219.38c-.1-2-1.33-3.39-2.19-3.29A17.76,17.76,0,0,1,56,215.9a2.33,2.33,0,0,1-.13-1.16,4.75,4.75,0,0,0,1.78-3.53.85.85,0,0,0,.53-.64c.13-.42,0-.82-.21-.89a.33.33,0,0,0-.28,0c0-2.2-.06-3.89-2.93-3.89-2.71,0-2.91,1.66-2.92,3.84a.36.36,0,0,0-.25-.08c-.26,0-.42.41-.37.84s.3.77.56.74l.09,0a4.9,4.9,0,0,0,1.68,3.52,2.62,2.62,0,0,1-.12,1.23,17.76,17.76,0,0,1-2.86.19c-.86-.1-2.1,1.24-2.19,3.29s5.75,3.11,6.33,3.23C55.32,222.49,61.16,221.32,61.07,219.38Z" transform="translate(-36.94 -25.03)"/></g><path class="cls-20" d="M395.58,245.77a140,140,0,1,0-248.1,88.86H363.75A139.36,139.36,0,0,0,395.58,245.77Z" transform="translate(-36.94 -25.03)"/><path class="cls-4" d="M358.17,274.86c-8.1-19.8-17.32-23.5-17.32-23.5s.29-.39.75-1.08a20.19,20.19,0,0,1,9,8,.25.25,0,0,0,.43-.25,20.76,20.76,0,0,0-9.2-8.2l.66-1a34.54,34.54,0,0,1,8.23,2.95c.28.14.54-.28.25-.42a34.6,34.6,0,0,0-8.21-3c5-8.25,15.79-31-15.77-33.56a18.06,18.06,0,0,1,7.41-4.46c.3-.11.17-.58-.13-.48a19,19,0,0,0-7.42,4.37,25,25,0,0,1,1.29-4.07c.12-.29-.36-.42-.48-.13a25,25,0,0,0-1.38,4.46c-.49-.46-1.61-1.48-3.22-2.76a25.2,25.2,0,0,0-2.88-3.55c-5.38-5.55-12.93-7.4-20.47-6.67a.26.26,0,0,0-.23.18,20.05,20.05,0,0,0-13.42,4.86c-5.29,4.41-6,11.18-4.69,17.69.08,1,.27,2,.37,2.7a37.88,37.88,0,0,0,5.52,13.64c-3.23.55-9.05,2.49-7.84,9.42,1.66,9.49,9.47,21.44.22,22.69s-13.71,22.42,19,42.2,63.89,1.05,51-14.62C349.7,300.3,366.28,294.65,358.17,274.86Zm-75.54-46.24a35.14,35.14,0,0,0,6.71,11.78,14.38,14.38,0,0,0-1.5.13A39.92,39.92,0,0,1,282.63,228.62Zm37.44-19.86a23.9,23.9,0,0,1,1.65,1.93c-4.56-3.42-11.81-7.88-19.55-8.8C308.85,201.75,315.33,203.76,320.07,208.76Z" transform="translate(-36.94 -25.03)"/><g class="cls-21"><path class="cls-22" d="M326.84,241.38s-3.58,1.82-4.38,3.45.86,11.87.86,11.87l20.78,16.49s5.61,42.9-8.25,54.45-65-40.59-65-40.59l14.52-18.48,13.53-4.28,2.31-9.9s-14.51-6.88-2.8-30.5h0l28.43,17.49" transform="translate(-36.94 -25.03)"/><path class="cls-23" d="M300.55,220.06l-7.26-1.31s2.64,4,9.9,2.31-2.64-1-2.64-1" transform="translate(-36.94 -25.03)"/></g><path class="cls-5" d="M299.89,269.56l-3-5.27s-8.62.85-11.75,4.5-23,40-23,40-8.6,4.08-15.68,7.56a11.68,11.68,0,0,1,4.95,7c6.21-2.25,14.34-5.67,17.28-7.78,0,0,19.17-14.67,21.26-24.59S299.89,269.56,299.89,269.56Z" transform="translate(-36.94 -25.03)"/><g class="cls-24"><path class="cls-25" d="M281.08,306.19s-7.92-6.27,4.29-22.44c11.13-14.74,9.24,4.62,9.24,4.62l-8.13,17.7Z" transform="translate(-36.94 -25.03)"/></g><path class="cls-5" d="M246.5,316.34l-19.5,9.6c-1,.52-9.39-2.09-10.44-1.56s-6.78,3.65-8.87,4.17,5.22,1.57,8.35,0,4.18,1.57,6.79,2.09,4.17,1,5.74,0c0,0,12-3.34,22.88-7.26A11.68,11.68,0,0,0,246.5,316.34Z" transform="translate(-36.94 -25.03)"/><path class="cls-6" d="M305.27,251.32s1.57,5.74-5.22,12.53l-3.65,6.78,7.83,8.87,7.82,2.61,16.7-19.31-7.3-4.69-2.09-21.4Z" transform="translate(-36.94 -25.03)"/><g class="cls-26"><path class="cls-27" d="M304.18,255.05s14.52-.66,14.85-9.57S302.53,251.42,304.18,255.05Z" transform="translate(-36.94 -25.03)"/></g><path class="cls-7" d="M302.69,260.71s3.1,8.88,18.76-2.6c0,0,9.75,5.2,12.42,6.84,5.94,3.62,7.2,3,8.77,8.76l-13.89,46,4.7,18.26-50.11.09,4.44-20.31a16.58,16.58,0,0,0-5.15-13.51c-7.16-6.93,2.45-18.39,10-39.26C293.25,263.22,302.69,260.71,302.69,260.71Z" transform="translate(-36.94 -25.03)"/><g class="cls-28"><path class="cls-29" d="M328.26,282.1s-8.9,11.55-7.91,33.66c0,0-27.48,9.46-39.15,8.85s1.53,8,1.53,8,33,2.5,48.17-8-2.64-42.5-2.64-42.5" transform="translate(-36.94 -25.03)"/></g><path class="cls-6" d="M283.75,325.7l-12.92-5.5-5.39-4.05a1.72,1.72,0,0,0-1.18-.33l-6.22.56a1.51,1.51,0,0,0-.7.27c-1.08.83-4.61,3.55-3.73,3.55a9.94,9.94,0,0,0,4.7-1.56s4.69,0,5.22-.53a19.44,19.44,0,0,0,3.13,2.61c1,.53.52,0,.52,0l-7,2.13a1.63,1.63,0,0,0-.88.64c-.88,1.28-3.29,4.74-4.13,5.58,0,0,2.61,1.05,4.69-2.08s7.83-3.14,8.35-2.61c0,0-7.3,4.17-9.39,8.34,0,0,1,2.57,2.61.53a17.79,17.79,0,0,1,8.87-5.74l-3,3.39a1,1,0,0,0,.1,1.45l2.87,2.46s.52-2.09-.52-3.13l2.61-2.61s2.88,5.74,11.35,2.35Z" transform="translate(-36.94 -25.03)"/><path class="cls-6" d="M306.52,321.59c-11.14,2.33-23.65,4.25-23.65,4.25l.22,5.57a165.65,165.65,0,0,0,27.85-1.53A10.53,10.53,0,0,0,306.52,321.59Z" transform="translate(-36.94 -25.03)"/><path class="cls-6" d="M340.47,268.9C333.73,266,328,282.06,328,282.06c-7.31,15.13-5.54,35-5.54,35-2.43,1.42-8.93,3.05-16,4.52a10.53,10.53,0,0,1,4.42,8.29c15-2.23,21.46-6,21.46-6C338.67,314.46,347.22,271.83,340.47,268.9Z" transform="translate(-36.94 -25.03)"/><path class="cls-6" d="M308.14,211.82s-14.52,10.89-12.61,27.64c.88,7.66,2.61,10,5.68,12.29,3.63,2.64,15.72,1,18.88-5.1l1.67-4.94s3,2.65,5.95-1.3,2.34-10.22-2-7.27l2.67-7.91-2.61-6.94Z" transform="translate(-36.94 -25.03)"/><g class="cls-30"><path class="cls-27" d="M297.73,220.81s5.46,2.23,10.41-7.34c0,0,1.32,15.51,11.55,15.18l-3-2.64s1.17,10.89,8,6.93-14-24.75-14-24.75l-13.88,4.95.83,7.67" transform="translate(-36.94 -25.03)"/></g><path class="cls-4" d="M328.26,219.08l-10.55-5.28-14.85-3.63s-18.15,6.27-9.9,9.9c7.24,3.19,13.46-4,14.88-5.86A14,14,0,0,0,310,223c1.78,2.59,4.59,4.33,8.36,5.21-.18,5.12,6,6,6,6l2.63-2,5.28-1.65Zm-18,3.73a12.22,12.22,0,0,1-2-5.52c1.61,6.11,10.13,10.37,10.13,10.37a1.8,1.8,0,0,0,0,.22A13,13,0,0,1,310.24,222.81Z" transform="translate(-36.94 -25.03)"/><path class="cls-31" d="M309.77,233.76c-.27,1.06-.77,1.85-1.12,1.76s-.43-1-.16-2.08.76-1.85,1.12-1.76S310,232.7,309.77,233.76Z" transform="translate(-36.94 -25.03)"/><path class="cls-31" d="M300.88,232c-.09,1.09-.46,1.95-.82,1.92s-.59-.93-.5-2,.46-2,.82-1.92S301,230.91,300.88,232Z" transform="translate(-36.94 -25.03)"/><path class="cls-32" d="M299.89,245.43a11.7,11.7,0,0,0,10.89-3.05s0,5.66-7.84,6.53C302.94,248.91,301.63,248.91,299.89,245.43Z" transform="translate(-36.94 -25.03)"/><path class="cls-4" d="M299,226.86a2.27,2.27,0,0,1,.43-.83,2.23,2.23,0,0,1,.8-.58,1.73,1.73,0,0,1,1-.16,2,2,0,0,1,.46.18,1.48,1.48,0,0,1,.39.32l0,.06a1.74,1.74,0,0,1-.48.07,3,3,0,0,1-.41,0h-.39a1.7,1.7,0,0,0-.39,0,2,2,0,0,0-.73.32,2.32,2.32,0,0,0-.6.61Z" transform="translate(-36.94 -25.03)"/><path class="cls-4" d="M312.31,226.86a2,2,0,0,0-.43-.83,2.15,2.15,0,0,0-.8-.58,1.71,1.71,0,0,0-1-.16,1.91,1.91,0,0,0-.47.18,1.44,1.44,0,0,0-.38.32l0,.06a1.67,1.67,0,0,0,.47.07,3.29,3.29,0,0,0,.42,0h.38a1.7,1.7,0,0,1,.39,0,1.83,1.83,0,0,1,.73.32,2.05,2.05,0,0,1,.6.61Z" transform="translate(-36.94 -25.03)"/><path class="cls-33" d="M302.6,241.38s-4.51-1.73-3.47-2.43c.83-.55,2.74-3.5,3.5-5.22a.23.23,0,0,1,.43.07C303.2,235.58,303.36,239.12,302.6,241.38Z" transform="translate(-36.94 -25.03)"/><path class="cls-34" d="M369.51,339.18H142.17a3,3,0,0,1-3-3h0a3,3,0,0,1,3-3H369.51a3,3,0,0,1,3,3h0A3,3,0,0,1,369.51,339.18Z" transform="translate(-36.94 -25.03)"/><path class="cls-8" d="M156.92,261l1.94,56.51a6.5,6.5,0,0,0,6.5,6.29h81.27a6.52,6.52,0,0,0,6.51-6.73l-1.94-56.52a6.51,6.51,0,0,0-6.5-6.28H163.43A6.5,6.5,0,0,0,156.92,261Z" transform="translate(-36.94 -25.03)"/><g class="cls-35"><path class="cls-36" d="M211.13,297.94s-6.27,24.42,0,31.35-34.64-2.64-34.64-2.64,5.61-20.13,21.11-28.71h0l7.26,4.62,6.27-4.62" transform="translate(-36.94 -25.03)"/></g><path class="cls-8" d="M197.6,297.94h13.53s-20.45,33-2.14,35.31H180.78S175.17,320.05,197.6,297.94Z" transform="translate(-36.94 -25.03)"/><path class="cls-32" d="M202.22,275a6,6,0,0,1,.28-1.8h-.28a7,7,0,1,0,6.93,7.65,5.47,5.47,0,0,1-1,.09A5.94,5.94,0,0,1,202.22,275Z" transform="translate(-36.94 -25.03)"/><path class="cls-2" d="M293.87,96.47H416.7a3.89,3.89,0,0,1,3.89,3.89v31a3.87,3.87,0,0,1-1.71,3.22l-19.64,13.28a1.31,1.31,0,0,1-2-1.47l3.93-13H293.87a3.89,3.89,0,0,1-3.88-3.89V100.36A3.89,3.89,0,0,1,293.87,96.47Z" transform="translate(-36.94 -25.03)"/><g class="cls-37"><polygon class="cls-38" points="357.89 111.99 362.24 108.37 374.94 108.37 358.62 117.44 357.89 111.99"/></g><path class="cls-32" d="M304.83,106.36H407.51a1.64,1.64,0,0,0,1.65-1.64h0a1.65,1.65,0,0,0-1.65-1.65H304.83a1.65,1.65,0,0,0-1.65,1.65h0A1.64,1.64,0,0,0,304.83,106.36Z" transform="translate(-36.94 -25.03)"/><path class="cls-32" d="M304.83,114.72H407.51a1.65,1.65,0,0,0,1.65-1.65h0a1.65,1.65,0,0,0-1.65-1.65H304.83a1.65,1.65,0,0,0-1.65,1.65h0A1.65,1.65,0,0,0,304.83,114.72Z" transform="translate(-36.94 -25.03)"/><rect class="cls-32" x="356.17" y="119.78" width="52.99" height="3.3" rx="1.17" transform="translate(728.38 217.82) rotate(180)"/><path class="cls-16" d="M243.16,403h25.57a1.69,1.69,0,0,1,1.69,1.69v13.48a1.69,1.69,0,0,1-.74,1.4l-8.55,5.77a.56.56,0,0,1-.86-.63L262,419H243.16a1.69,1.69,0,0,1-1.69-1.69V404.65A1.69,1.69,0,0,1,243.16,403Z" transform="translate(-36.94 -25.03)"/><path class="cls-16" d="M425.18,152.62h15.59a1,1,0,0,1,1,1v8.22a1,1,0,0,1-.45.85l-5.21,3.52a.35.35,0,0,1-.53-.38l1-3.44H425.18a1,1,0,0,1-1-1v-7.74A1,1,0,0,1,425.18,152.62Z" transform="translate(-36.94 -25.03)"/><path class="cls-3" d="M378.72,139.74H245.08a4.23,4.23,0,0,0-4.23,4.23v33.71a4.21,4.21,0,0,0,1.86,3.5l21.37,14.44a1.42,1.42,0,0,0,2.16-1.59L262,179.93H378.72a4.23,4.23,0,0,0,4.22-4.23V144A4.22,4.22,0,0,0,378.72,139.74Z" transform="translate(-36.94 -25.03)"/><g class="cls-39"><polygon class="cls-40" points="231.93 158.83 227.2 154.88 213.38 154.88 231.15 164.75 231.93 158.83"/></g><path class="cls-32" d="M366.8,150.5H255.08a1.79,1.79,0,0,1-1.79-1.79h0a1.79,1.79,0,0,1,1.79-1.79H366.8a1.79,1.79,0,0,1,1.79,1.79h0A1.79,1.79,0,0,1,366.8,150.5Z" transform="translate(-36.94 -25.03)"/><path class="cls-32" d="M366.8,159.59H255.08a1.79,1.79,0,0,1-1.79-1.79h0a1.79,1.79,0,0,1,1.79-1.79H366.8a1.79,1.79,0,0,1,1.79,1.79h0A1.79,1.79,0,0,1,366.8,159.59Z" transform="translate(-36.94 -25.03)"/><rect class="cls-32" x="216.35" y="140.07" width="57.65" height="3.59" rx="1.27"/></g></g></svg>